<svg width="15" height="15" xmlns="http://www.w3.org/2000/svg"><path d="M8.355.833v2.153l-.039-.001h-1.29c-.11 0-.217.004-.326.01a1.653 1.653 0 00-.468.092.807.807 0 00-.505.465 1.476 1.476 0 00-.092.551c-.003.517-.001 1.035-.001 1.552 0 .048-.01.048.053.048H8.23c.022-.002.028.005.025.027-.019.12-.035.24-.052.36l-.044.31c-.017.12-.035.241-.051.362a60.69 60.69 0 01-.044.311l-.052.362-.044.311-.045.32c-.005.04-.004.04-.047.04H5.694c-.068 0-.06-.008-.06.055v6.088c0 .041 0 .041-.045.041H2.93c-.018.001-.027-.004-.025-.022v-6.12c0-.043 0-.043-.046-.043H.613V5.704h2.243c.06 0 .049-.002.049-.046v-1.71c0-.093.001-.185.005-.278.008-.176.031-.352.066-.526.064-.324.17-.635.34-.927.356-.617.903-1.035 1.62-1.273.217-.072.44-.121.667-.153.2-.028.4-.05.602-.048.361.004.723.01 1.085.017.077.002.154.007.232.012.139.008.279.016.419.026.079.005.158.013.237.02l.177.016" fill="#312C38" fill-rule="evenodd"/></svg>