<svg xmlns="http://www.w3.org/2000/svg" xmlns:xlink="http://www.w3.org/1999/xlink" viewBox="0 0 18 15">
  <defs/>
  <defs>
    <path id="a" d="M0 0h17.143v15H0z"/>
  </defs>
  <g fill="none" fill-rule="evenodd">
    <mask id="b" fill="#fff">
      <use xlink:href="#a"/>
    </mask>
    <path fill="#312C38" d="M13.358 6.972c0 3.146-2.696 5.704-6.011 5.704s-6.011-2.558-6.011-5.704 2.696-5.704 6.01-5.704c3.316 0 6.012 2.558 6.012 5.704zm-.822 4.93l3.495 2.94a.68.68 0 00.443.158.686.686 0 00.501-.213.61.61 0 00-.058-.894l-3.526-2.964a6.695 6.695 0 001.302-3.957C14.693 3.127 11.398 0 7.347 0 3.295 0 0 3.127 0 6.972c0 3.845 3.295 6.972 7.347 6.972a7.536 7.536 0 005.189-2.041z" mask="url(#b)"/>
  </g>
</svg>