<svg width="15" height="12" xmlns="http://www.w3.org/2000/svg"><path d="M5.03 11.323h-.175c-.041-.004-.082-.008-.123-.009A8.084 8.084 0 01.92 10.252c-.07-.04-.14-.083-.21-.124l.002-.013c.73.077 1.45.025 2.155-.166A5.654 5.654 0 004.811 9a2.857 2.857 0 01-1.614-.535 2.684 2.684 0 01-.99-1.331c.423.073.833.061 1.24-.047-.647-.141-1.184-.453-1.6-.95a2.585 2.585 0 01-.618-1.708c.14.058.27.12.406.166.135.045.273.083.413.11.14.028.282.039.423.057l.004-.016c-.595-.403-.99-.94-1.151-1.624-.162-.684-.055-1.334.302-1.947C3.138 2.89 5.047 3.828 7.377 3.982l-.006-.037a2.568 2.568 0 01-.033-.987c.093-.568.348-1.06.766-1.471.44-.43.97-.691 1.592-.78l.258-.03h.272l.064.01c.106.013.213.02.318.038a2.82 2.82 0 011.497.774.091.091 0 00.07.02 5.673 5.673 0 001.671-.61c.016-.01.03-.016.057-.03a2.759 2.759 0 01-1.205 1.476 5.87 5.87 0 001.56-.4.21.21 0 01-.03.054 5.509 5.509 0 01-1.294 1.286c-.035.025-.047.05-.046.09a7.041 7.041 0 01-.174 1.876 7.802 7.802 0 01-2.073 3.785 7.4 7.4 0 01-2.668 1.738 8.286 8.286 0 01-2.852.531c-.03 0-.061.005-.092.008" fill="#312C38" fill-rule="evenodd"/></svg>